# xmcd
#
# Track frame offsets:
#	187
#	21257
#	40500
#	58397
#	77362
#	92950
#	110357
#	126587
#	142420
#	159637
#
# Disc length: 2367 seconds
#
# Revision: 1
# Processed by: cddbd v1.5.1PL0 Copyright (c) Steve Scherf et al.
# Submitted via: CDex 1.50Beta5
#
DISCID=8c093d0a
DTITLE=シャ乱Q - ロスタイム
DYEAR=1994
DGENRE=Rock
TTITLE0=愛し合おう戦争になる前に
TTITLE1=上・京・物・語
TTITLE2=正解のない世界
TTITLE3=GIVE THE POWER
TTITLE4=熱血先生
TTITLE5=すんごいことしたい
TTITLE6=何が欲しいの?
TTITLE7=独り言
TTITLE8=ロスタイム
TTITLE9=出会い
EXTD=
EXTT0=
EXTT1=
EXTT2=
EXTT3=
EXTT4=
EXTT5=
EXTT6=
EXTT7=
EXTT8=
EXTT9=
PLAYORDER=
